<svg width="93" height="98" viewBox="0 0 93 98" fill="none" xmlns="http://www.w3.org/2000/svg">
<g filter="url(#filter0_d_145_289)">
<path d="M40 40V58H41.4444V56.5H42.8889V55H44.3333V53.5H45.7778V52H53V50.5H51.5556V49H50.1111V47.5H48.6667V46H47.2222V44.5H45.7778V43H44.3333V41.5H42.8889V40H40Z" fill="white"/>
</g>
<g style="mix-blend-mode:plus-lighter" filter="url(#filter1_f_145_289)">
<path d="M40 40V58H41.4444V56.5H42.8889V55H44.3333V53.5H45.7778V52H53V50.5H51.5556V49H50.1111V47.5H48.6667V46H47.2222V44.5H45.7778V43H44.3333V41.5H42.8889V40H40Z" fill="white"/>
</g>
<g style="mix-blend-mode:plus-lighter" filter="url(#filter2_f_145_289)">
<path d="M40 40V58H41.4444V56.5H42.8889V55H44.3333V53.5H45.7778V52H53V50.5H51.5556V49H50.1111V47.5H48.6667V46H47.2222V44.5H45.7778V43H44.3333V41.5H42.8889V40H40Z" fill="white"/>
</g>
<defs>
<filter id="filter0_d_145_289" x="26" y="26" width="41" height="46" filterUnits="userSpaceOnUse" color-interpolation-filters="sRGB">
<feFlood flood-opacity="0" result="BackgroundImageFix"/>
<feColorMatrix in="SourceAlpha" type="matrix" values="0 0 0 0 0 0 0 0 0 0 0 0 0 0 0 0 0 0 127 0" result="hardAlpha"/>
<feOffset/>
<feGaussianBlur stdDeviation="7"/>
<feComposite in2="hardAlpha" operator="out"/>
<feColorMatrix type="matrix" values="0 0 0 0 1 0 0 0 0 1 0 0 0 0 1 0 0 0 0.8 0"/>
<feBlend mode="normal" in2="BackgroundImageFix" result="effect1_dropShadow_145_289"/>
<feBlend mode="normal" in="SourceGraphic" in2="effect1_dropShadow_145_289" result="shape"/>
</filter>
<filter id="filter1_f_145_289" x="0" y="0" width="93" height="98" filterUnits="userSpaceOnUse" color-interpolation-filters="sRGB">
<feFlood flood-opacity="0" result="BackgroundImageFix"/>
<feBlend mode="normal" in="SourceGraphic" in2="BackgroundImageFix" result="shape"/>
<feGaussianBlur stdDeviation="20" result="effect1_foregroundBlur_145_289"/>
</filter>
<filter id="filter2_f_145_289" x="0" y="0" width="93" height="98" filterUnits="userSpaceOnUse" color-interpolation-filters="sRGB">
<feFlood flood-opacity="0" result="BackgroundImageFix"/>
<feBlend mode="normal" in="SourceGraphic" in2="BackgroundImageFix" result="shape"/>
<feGaussianBlur stdDeviation="20" result="effect1_foregroundBlur_145_289"/>
</filter>
</defs>
</svg>
