<svg width="28" height="28" viewBox="0 0 28 28" fill="none" xmlns="http://www.w3.org/2000/svg">
<g clip-path="url(#clip0_124_7)">
<path fill-rule="evenodd" clip-rule="evenodd" d="M17.178 0.0634057L1.68476 1.20777C0.43484 1.31585 0 2.13261 0 3.11149V20.0963C0 20.8587 0.27076 21.5111 0.924 22.383L4.56596 27.1187C5.16432 27.8811 5.70836 28.0446 6.85076 27.9903L24.8427 26.9011C26.364 26.7928 26.7999 26.0844 26.7999 24.8871V5.77905C26.7999 5.16025 26.5555 4.98189 25.8359 4.45381L20.7668 0.879886C19.5703 0.00992564 19.0812 -0.100114 17.178 0.0631257V0.0634057ZM7.2576 5.46629C5.78844 5.56513 5.45524 5.58753 4.62084 4.90909L2.49956 3.22181C2.28396 3.00341 2.39232 2.73097 2.93552 2.67665L17.8296 1.58829C19.0803 1.47909 19.7316 1.91505 20.2208 2.29585L22.7752 4.14665C22.8844 4.20181 23.156 4.52745 22.8292 4.52745L7.448 5.45341L7.2576 5.46629ZM5.54484 24.7238V8.50261C5.54484 7.79421 5.7624 7.46745 6.41368 7.41257L24.08 6.37825C24.6792 6.32421 24.95 6.70501 24.95 7.41229V23.5254C24.95 24.2338 24.8408 24.833 23.8627 24.8871L6.95716 25.8671C5.97912 25.9211 5.54512 25.5955 5.54512 24.7238H5.54484ZM22.2328 9.37229C22.3412 9.86229 22.2328 10.3523 21.7428 10.4083L20.928 10.5698V22.5463C20.2205 22.9271 19.5692 23.1446 19.0249 23.1446C18.1549 23.1446 17.9376 22.8722 17.2861 22.0563L11.9577 13.6731V21.7838L13.6433 22.1655C13.6433 22.1655 13.6433 23.1455 12.2833 23.1455L8.53412 23.363C8.42492 23.1446 8.53412 22.6006 8.91408 22.4922L9.89324 22.2206V11.4966L8.5344 11.3866C8.4252 10.8966 8.6968 10.189 9.4584 10.1342L13.4812 9.86341L19.0252 18.355V10.8426L17.612 10.6802C17.5028 10.0801 17.9376 9.64417 18.4808 9.59097L22.2328 9.37229Z" fill="white"/>
</g>
<defs>
<clipPath id="clip0_124_7">
<rect width="28" height="28" fill="white"/>
</clipPath>
</defs>
</svg>
