<svg width="28" height="28" viewBox="0 0 28 28" fill="none" xmlns="http://www.w3.org/2000/svg">
<g clip-path="url(#clip0_124_5)">
<path d="M14.5834 0.875061C7.17041 0.875061 1.16675 6.87873 1.16675 14.2917C1.16675 20.2289 5.00741 25.2432 10.3402 27.0201C11.0111 27.1379 11.2619 26.7354 11.2619 26.3831C11.2619 26.0646 11.2456 25.0087 11.2456 23.8841C7.87508 24.5047 7.00358 23.0627 6.73525 22.3091C6.58358 21.9229 5.93025 20.7317 5.35858 20.4132C4.88958 20.1612 4.21875 19.5406 5.34225 19.5242C6.39925 19.5079 7.15408 20.4972 7.40608 20.8997C8.61358 22.9297 10.5421 22.3581 11.3132 22.0057C11.4299 21.1342 11.7822 20.5474 12.1684 20.2114C9.18292 19.8766 6.06441 18.7192 6.06441 13.5871C6.06441 12.1287 6.58358 10.9212 7.43875 9.98206C7.30458 9.64606 6.83558 8.27056 7.57292 6.42606C7.57292 6.42606 8.69642 6.07373 11.2631 7.80156C12.3364 7.49939 13.4762 7.34889 14.6172 7.34889C15.7571 7.34889 16.8981 7.50056 17.9714 7.80156C20.5381 6.05739 21.6604 6.42606 21.6604 6.42606C22.3989 8.27056 21.9287 9.64606 21.7946 9.98206C22.6497 10.9212 23.1701 12.1112 23.1701 13.5871C23.1701 18.7356 20.0341 19.8754 17.0486 20.2114C17.5351 20.6314 17.9539 21.4364 17.9539 22.6941C17.9539 24.4884 17.9376 25.9304 17.9376 26.3831C17.9376 26.7354 18.1896 27.1554 18.8593 27.0212C24.1606 25.2432 28.0001 20.2114 28.0001 14.2917C28.0001 6.87873 21.9964 0.875061 14.5834 0.875061Z" fill="white"/>
</g>
<defs>
<clipPath id="clip0_124_5">
<rect width="28" height="28" fill="white"/>
</clipPath>
</defs>
</svg>
