<svg width="28" height="28" viewBox="0 0 28 28" fill="none" xmlns="http://www.w3.org/2000/svg">
<g clip-path="url(#clip0_124_183)">
<path d="M14.5834 0.875C7.17041 0.875 1.16675 6.87867 1.16675 14.2917C1.16675 20.2288 5.00741 25.2432 10.3402 27.02C11.0111 27.1378 11.2619 26.7353 11.2619 26.383C11.2619 26.0645 11.2456 25.0087 11.2456 23.884C7.87508 24.5047 7.00358 23.0627 6.73525 22.309C6.58358 21.9228 5.93025 20.7317 5.35858 20.4132C4.88958 20.1612 4.21875 19.5405 5.34225 19.5242C6.39925 19.5078 7.15408 20.4972 7.40608 20.8997C8.61358 22.9297 10.5421 22.358 11.3132 22.0057C11.4299 21.1342 11.7822 20.5473 12.1684 20.2113C9.18292 19.8765 6.06441 18.7192 6.06441 13.587C6.06441 12.1287 6.58358 10.9212 7.43875 9.982C7.30458 9.646 6.83558 8.2705 7.57292 6.426C7.57292 6.426 8.69642 6.07367 11.2631 7.8015C12.3364 7.49933 13.4762 7.34883 14.6172 7.34883C15.7571 7.34883 16.8981 7.5005 17.9714 7.8015C20.5381 6.05733 21.6604 6.426 21.6604 6.426C22.3989 8.2705 21.9287 9.646 21.7946 9.982C22.6497 10.9212 23.1701 12.1112 23.1701 13.587C23.1701 18.7355 20.0341 19.8753 17.0486 20.2113C17.5351 20.6313 17.9539 21.4363 17.9539 22.694C17.9539 24.4883 17.9376 25.9303 17.9376 26.383C17.9376 26.7353 18.1896 27.1553 18.8593 27.0212C24.1606 25.2432 28.0001 20.2113 28.0001 14.2917C28.0001 6.87867 21.9964 0.875 14.5834 0.875Z" fill="white"/>
</g>
<defs>
<clipPath id="clip0_124_183">
<rect width="28" height="28" fill="white"/>
</clipPath>
</defs>
</svg>
