<svg width="49" height="62" viewBox="0 0 49 62" fill="none" xmlns="http://www.w3.org/2000/svg">
<g clip-path="url(#clip0_124_80)">
<path d="M0.5 0.0715332V50.7837L24.4773 61.9304L48.5099 50.7837V0.0715332H0.5Z" fill="#AD5600"/>
<path d="M35.7393 30.1879C35.7393 31.8673 35.4008 33.3223 34.7238 34.5531C34.0738 35.7527 33.166 36.7912 32.0665 37.5928C30.9485 38.4002 29.6979 39.003 28.3721 39.3737C27.0159 39.7624 25.6126 39.9597 24.2025 39.9597C22.8415 39.9607 21.4853 39.7985 20.1624 39.4764C18.9003 39.1772 17.6909 38.6859 16.5761 38.0193C15.4873 37.3599 14.528 36.5048 13.7459 35.4966C12.9394 34.4689 12.3344 33.2293 11.9312 31.7779L18.6717 29.9946C18.9598 31.0103 19.5503 31.9019 20.4433 32.6695C21.3363 33.4371 22.4741 33.8213 23.8568 33.8221C24.3898 33.8207 24.9202 33.7476 25.4339 33.6046C25.9461 33.4711 26.4294 33.2438 26.8598 32.9341C27.2889 32.6172 27.643 32.2088 27.8968 31.738C28.1705 31.2459 28.3073 30.6369 28.3073 29.9112C28.3073 29.1283 28.1273 28.4759 27.7672 27.954C27.402 27.4276 26.9119 27.0014 26.3413 26.7144C25.7082 26.3959 25.0307 26.176 24.3321 26.062C23.5901 25.9321 22.8384 25.8666 22.0852 25.8662H20.1408V20.5611H22.2581C22.9236 20.5631 23.5882 20.5122 24.2457 20.4089C24.8427 20.3185 25.4199 20.1261 25.9524 19.8398C26.4423 19.5757 26.8584 19.1918 27.1623 18.7235C27.4647 18.2571 27.616 17.6446 27.616 16.8858C27.616 15.7767 27.2271 14.931 26.4493 14.3486C25.6771 13.7666 24.735 13.4586 23.7704 13.4727C22.7887 13.4535 21.832 13.7848 21.0698 14.4078C20.3021 15.0429 19.7769 15.9263 19.5839 16.9076L12.8433 15.3369C13.1824 14.1015 13.7527 12.9426 14.5237 11.9226C15.2633 10.964 16.1633 10.1426 17.1834 9.49538C18.22 8.83679 19.3488 8.33831 20.5321 8.01656C21.7446 7.68314 22.996 7.51491 24.2529 7.51638C25.5879 7.51433 26.9173 7.69024 28.2065 8.03952C29.4358 8.36394 30.597 8.90867 31.6344 9.64761C32.6352 10.3654 33.4683 11.2944 34.0757 12.3696C34.695 13.4594 35.0047 14.7445 35.0047 16.2249C35.0047 17.939 34.5222 19.3839 33.5572 20.5599C32.6075 21.7259 31.3135 22.557 29.8628 22.9328V23.0633C30.7027 23.2564 31.5054 23.5866 32.2393 24.0407C32.9402 24.473 33.5676 25.016 34.0973 25.6488C34.6155 26.2713 35.0247 26.9781 35.3072 27.7389C35.5977 28.5221 35.7441 29.3519 35.7393 30.1879Z" fill="white"/>
<path d="M0.5 41.0312V45.8543L24.4773 57.001L48.5099 45.8543V41.0312L24.4773 52.1779L0.5 41.0312Z" fill="white"/>
</g>
<defs>
<clipPath id="clip0_124_80">
<rect x="0.5" y="0.0715332" width="48.0099" height="61.8589" rx="4" fill="white"/>
</clipPath>
</defs>
</svg>
