<svg width="49" height="63" viewBox="0 0 49 63" fill="none" xmlns="http://www.w3.org/2000/svg">
<g clip-path="url(#clip0_124_14)">
<path d="M0.5 0.880859V51.5931L24.4773 62.7397L48.5099 51.5931V0.880859H0.5Z" fill="#AD5600"/>
<path d="M35.7393 30.9972C35.7393 32.6766 35.4008 34.1316 34.7238 35.3624C34.0738 36.5621 33.166 37.6006 32.0665 38.4022C30.9485 39.2095 29.6979 39.8123 28.3721 40.183C27.0159 40.5718 25.6126 40.769 24.2025 40.769C22.8415 40.77 21.4853 40.6078 20.1624 40.2857C18.9003 39.9865 17.6909 39.4952 16.5761 38.8287C15.4873 38.1692 14.528 37.3141 13.7459 36.306C12.9394 35.2782 12.3344 34.0386 11.9312 32.5872L18.6717 30.8039C18.9598 31.8196 19.5503 32.7112 20.4433 33.4788C21.3363 34.2464 22.4741 34.6306 23.8568 34.6314C24.3898 34.6301 24.9202 34.5569 25.4339 34.414C25.9461 34.2804 26.4294 34.0531 26.8598 33.7434C27.2889 33.4265 27.643 33.0181 27.8968 32.5473C28.1705 32.0552 28.3073 31.4463 28.3073 30.7205C28.3073 29.9376 28.1273 29.2852 27.7672 28.7633C27.402 28.2369 26.9119 27.8108 26.3413 27.5237C25.7082 27.2053 25.0307 26.9853 24.3321 26.8713C23.5901 26.7414 22.8384 26.6759 22.0852 26.6756H20.1408V21.3704H22.2581C22.9236 21.3724 23.5882 21.3215 24.2457 21.2182C24.8427 21.1279 25.4199 20.9354 25.9524 20.6491C26.4423 20.385 26.8584 20.0011 27.1623 19.5328C27.4647 19.0664 27.616 18.4539 27.616 17.6951C27.616 16.586 27.2271 15.7403 26.4493 15.158C25.6771 14.576 24.735 14.2679 23.7704 14.282C22.7887 14.2628 21.832 14.5941 21.0698 15.2172C20.3021 15.8522 19.7769 16.7357 19.5839 17.7169L12.8433 16.1463C13.1824 14.9108 13.7527 13.752 14.5237 12.7319C15.2633 11.7733 16.1633 10.9519 17.1834 10.3047C18.22 9.64611 19.3488 9.14764 20.5321 8.82589C21.7446 8.49247 22.996 8.32424 24.2529 8.3257C25.5879 8.32366 26.9173 8.49957 28.2065 8.84884C29.4358 9.17326 30.597 9.718 31.6344 10.4569C32.6352 11.1747 33.4683 12.1037 34.0757 13.179C34.695 14.2687 35.0047 15.5538 35.0047 17.0343C35.0047 18.7483 34.5222 20.1933 33.5572 21.3692C32.6075 22.5352 31.3135 23.3663 29.8628 23.7421V23.8726C30.7027 24.0657 31.5054 24.3959 32.2393 24.85C32.9402 25.2824 33.5676 25.8253 34.0973 26.4581C34.6155 27.0806 35.0247 27.7874 35.3072 28.5482C35.5977 29.3314 35.7441 30.1613 35.7393 30.9972Z" fill="white"/>
<path d="M0.5 41.8408V46.6639L24.4773 57.8106L48.5099 46.6639V41.8408L24.4773 52.9875L0.5 41.8408Z" fill="white"/>
</g>
<defs>
<clipPath id="clip0_124_14">
<rect x="0.5" y="0.880859" width="48.0099" height="61.8589" rx="4" fill="white"/>
</clipPath>
</defs>
</svg>
