<svg width="49" height="63" viewBox="0 0 49 63" fill="none" xmlns="http://www.w3.org/2000/svg">
<g clip-path="url(#clip0_124_96)">
<path d="M0.5 0.936768V51.649L24.4773 62.7957L48.5099 51.649V0.936768H0.5Z" fill="#AD5600"/>
<path d="M35.7393 31.0531C35.7393 32.7325 35.4008 34.1876 34.7238 35.4183C34.0738 36.618 33.166 37.6565 32.0665 38.4581C30.9485 39.2654 29.6979 39.8682 28.3721 40.2389C27.0159 40.6277 25.6126 40.8249 24.2025 40.8249C22.8415 40.8259 21.4853 40.6637 20.1624 40.3416C18.9003 40.0425 17.6909 39.5511 16.5761 38.8846C15.4873 38.2251 14.528 37.37 13.7459 36.3619C12.9394 35.3341 12.3344 34.0945 11.9312 32.6431L18.6717 30.8598C18.9598 31.8755 19.5503 32.7671 20.4433 33.5347C21.3363 34.3023 22.4741 34.6865 23.8568 34.6873C24.3898 34.686 24.9202 34.6128 25.4339 34.4699C25.9461 34.3363 26.4294 34.109 26.8598 33.7993C27.2889 33.4825 27.643 33.074 27.8968 32.6032C28.1705 32.1111 28.3073 31.5022 28.3073 30.7765C28.3073 29.9936 28.1273 29.3411 27.7672 28.8192C27.402 28.2928 26.9119 27.8667 26.3413 27.5796C25.7082 27.2612 25.0307 27.0412 24.3321 26.9272C23.5901 26.7973 22.8384 26.7318 22.0852 26.7315H20.1408V21.4263H22.2581C22.9236 21.4283 23.5882 21.3774 24.2457 21.2741C24.8427 21.1838 25.4199 20.9913 25.9524 20.7051C26.4423 20.4409 26.8584 20.057 27.1623 19.5887C27.4647 19.1223 27.616 18.5098 27.616 17.7511C27.616 16.6419 27.2271 15.7962 26.4493 15.2139C25.6771 14.6319 24.735 14.3238 23.7704 14.3379C22.7887 14.3187 21.832 14.65 21.0698 15.2731C20.3021 15.9081 19.7769 16.7916 19.5839 17.7728L12.8433 16.2022C13.1824 14.9667 13.7527 13.8079 14.5237 12.7878C15.2633 11.8292 16.1633 11.0078 17.1834 10.3606C18.22 9.70202 19.3488 9.20355 20.5321 8.8818C21.7446 8.54838 22.996 8.38015 24.2529 8.38161C25.5879 8.37956 26.9173 8.55547 28.2065 8.90475C29.4358 9.22917 30.597 9.7739 31.6344 10.5128C32.6352 11.2306 33.4683 12.1596 34.0757 13.2349C34.695 14.3247 35.0047 15.6098 35.0047 17.0902C35.0047 18.8042 34.5222 20.2492 33.5572 21.4251C32.6075 22.5911 31.3135 23.4222 29.8628 23.798V23.9285C30.7027 24.1216 31.5054 24.4518 32.2393 24.9059C32.9402 25.3383 33.5676 25.8812 34.0973 26.514C34.6155 27.1365 35.0247 27.8434 35.3072 28.6041C35.5977 29.3873 35.7441 30.2172 35.7393 31.0531Z" fill="white"/>
<path d="M0.5 41.8965V46.7195L24.4773 57.8662L48.5099 46.7195V41.8965L24.4773 53.0432L0.5 41.8965Z" fill="white"/>
</g>
<defs>
<clipPath id="clip0_124_96">
<rect x="0.5" y="0.936768" width="48.0099" height="61.8589" rx="4" fill="white"/>
</clipPath>
</defs>
</svg>
