<svg width="50" height="64" viewBox="0 0 50 64" fill="none" xmlns="http://www.w3.org/2000/svg">
<g clip-path="url(#clip0_124_112)">
<path d="M0.5 0.501465V52.1484L24.8396 63.5006L49.2351 52.1484V0.501465H0.5Z" fill="#EC9A00"/>
<path d="M36.2278 29.9178C36.2278 31.8389 35.8916 33.5001 35.219 34.9011C34.5895 36.2499 33.6675 37.4383 32.5215 38.3784C31.3818 39.3026 30.0798 40.0014 28.6836 40.4382C25.9411 41.3059 23.0083 41.352 20.2403 40.571C19.0142 40.224 17.8463 39.6939 16.7752 38.9985C15.7438 38.3289 14.8366 37.4818 14.0948 36.4958C13.3433 35.4953 12.7853 34.3607 12.45 33.1514L19.1608 31.0695C19.4677 32.1441 20.1052 33.0921 20.981 33.7765C21.8745 34.4852 22.9345 34.8396 24.161 34.8396C25.3517 34.8638 26.5115 34.4551 27.4287 33.6879C28.353 32.9185 28.8152 31.7819 28.8152 30.2783C28.8152 29.3645 28.6251 28.5967 28.245 27.9749C27.8788 27.3695 27.3752 26.8608 26.7756 26.491C26.1472 26.1114 25.4564 25.8488 24.7361 25.7158C23.9845 25.569 23.2208 25.4948 22.4553 25.4943C21.1823 25.5105 19.913 25.6365 18.6612 25.8708C17.3698 26.0889 16.1002 26.4224 14.8672 26.8675L15.608 8.92139H34.6488V15.3H22.1482L21.8851 20.2612C22.3965 20.136 22.9173 20.0537 23.4422 20.0151C24.0107 19.9708 24.5298 19.9487 24.9993 19.9487C26.4831 19.9377 27.9607 20.145 29.3854 20.5639C30.6906 20.9414 31.9066 21.5818 32.9601 22.4465C33.9745 23.2992 34.7892 24.3682 35.3457 25.5768C35.9338 26.8171 36.2278 28.2641 36.2278 29.9178Z" fill="white"/>
<path d="M0.5 42.2163V47.1283L24.8396 58.4804L49.2351 47.1283V42.2163L24.8396 53.5685L0.5 42.2163Z" fill="white"/>
</g>
<defs>
<clipPath id="clip0_124_112">
<rect x="0.5" y="0.501465" width="48.7351" height="62.9991" rx="4" fill="white"/>
</clipPath>
</defs>
</svg>
