<svg width="50" height="64" viewBox="0 0 50 64" fill="none" xmlns="http://www.w3.org/2000/svg">
<g clip-path="url(#clip0_124_128)">
<path d="M0.5 0.366699V52.0136L24.8396 63.3658L49.2351 52.0136V0.366699H0.5Z" fill="#EC9A00"/>
<path d="M36.2278 29.783C36.2278 31.7042 35.8916 33.3653 35.219 34.7664C34.5895 36.1151 33.6675 37.3035 32.5215 38.2436C31.3818 39.1678 30.0798 39.8666 28.6836 40.3034C25.9411 41.1711 23.0083 41.2173 20.2403 40.4363C19.0142 40.0892 17.8463 39.5592 16.7752 38.8638C15.7438 38.1941 14.8366 37.347 14.0948 36.361C13.3433 35.3605 12.7853 34.2259 12.45 33.0167L19.1608 30.9347C19.4677 32.0093 20.1052 32.9574 20.981 33.6417C21.8745 34.3505 22.9345 34.7048 24.161 34.7048C25.3517 34.7291 26.5115 34.3203 27.4287 33.5531C28.353 32.7837 28.8152 31.6472 28.8152 30.1436C28.8152 29.2297 28.6251 28.4619 28.245 27.8402C27.8788 27.2347 27.3752 26.726 26.7756 26.3562C26.1472 25.9766 25.4564 25.7141 24.7361 25.581C23.9845 25.4342 23.2208 25.3601 22.4553 25.3596C21.1823 25.3758 19.913 25.5017 18.6612 25.7361C17.3698 25.9541 16.1002 26.2876 14.8672 26.7327L15.608 8.78662H34.6488V15.1653H22.1482L21.8851 20.1265C22.3965 20.0012 22.9173 19.9189 23.4422 19.8804C24.0107 19.8361 24.5298 19.8139 24.9993 19.8139C26.4831 19.803 27.9607 20.0102 29.3854 20.4291C30.6906 20.8066 31.9066 21.447 32.9601 22.3117C33.9745 23.1644 34.7892 24.2334 35.3457 25.442C35.9338 26.6823 36.2278 28.1293 36.2278 29.783Z" fill="white"/>
<path d="M0.5 42.0815V46.9935L24.8396 58.3456L49.2351 46.9935V42.0815L24.8396 53.4337L0.5 42.0815Z" fill="white"/>
</g>
<defs>
<clipPath id="clip0_124_128">
<rect x="0.5" y="0.366699" width="48.7351" height="62.9991" rx="4" fill="white"/>
</clipPath>
</defs>
</svg>
