<svg width="24" height="24" viewBox="0 0 24 24" fill="none" xmlns="http://www.w3.org/2000/svg">
<path fill-rule="evenodd" clip-rule="evenodd" d="M0.0176036 8.20168C9.27204e-10 8.92025 0 9.73603 0 10.6666V13.3333C0 17.1045 0 18.9901 1.17157 20.1617C2.34315 21.3333 4.22876 21.3333 8 21.3333H16C19.7712 21.3333 21.6569 21.3333 22.8284 20.1617C24 18.9901 24 17.1045 24 13.3333V10.6666C24 9.73603 24 8.92025 23.9824 8.20168L13.295 14.1391C12.4897 14.5865 11.5103 14.5865 10.705 14.1391L0.0176036 8.20168ZM0.323956 5.37291C0.43446 5.40065 0.543198 5.44312 0.647524 5.50108L12 11.808L23.3525 5.50108C23.4568 5.44312 23.5655 5.40066 23.676 5.37291C23.5027 4.74155 23.2367 4.24651 22.8284 3.8382C21.6569 2.66663 19.7712 2.66663 16 2.66663H8C4.22876 2.66663 2.34315 2.66663 1.17157 3.8382C0.763264 4.24651 0.497256 4.74155 0.323956 5.37291Z" fill="white"/>
</svg>
