<svg width="24" height="24" viewBox="0 0 24 24" fill="none" xmlns="http://www.w3.org/2000/svg">
<path fill-rule="evenodd" clip-rule="evenodd" d="M0.0176036 8.20156C9.27204e-10 8.92013 0 9.73591 0 10.6665V13.3332C0 17.1044 0 18.99 1.17157 20.1616C2.34315 21.3332 4.22876 21.3332 8 21.3332H16C19.7712 21.3332 21.6569 21.3332 22.8284 20.1616C24 18.99 24 17.1044 24 13.3332V10.6665C24 9.73591 24 8.92013 23.9824 8.20156L13.295 14.139C12.4897 14.5864 11.5103 14.5864 10.705 14.139L0.0176036 8.20156ZM0.323956 5.37278C0.43446 5.40053 0.543198 5.443 0.647524 5.50096L12 11.8079L23.3525 5.50096C23.4568 5.443 23.5655 5.40054 23.676 5.37279C23.5027 4.74143 23.2367 4.24639 22.8284 3.83808C21.6569 2.6665 19.7712 2.6665 16 2.6665H8C4.22876 2.6665 2.34315 2.6665 1.17157 3.83808C0.763264 4.24639 0.497256 4.74142 0.323956 5.37278Z" fill="white"/>
</svg>
