<svg width="241" height="269" viewBox="0 0 241 269" fill="none" xmlns="http://www.w3.org/2000/svg">
<g filter="url(#filter0_d_87_124)">
<path d="M80 80V189H89V179.917H98V170.833H107V161.75H116V152.667H161V143.583H152V134.5H143V125.417H134V116.333H125V107.25H116V98.1667H107V89.0833H98V80H80Z" fill="white"/>
</g>
<g filter="url(#filter1_f_87_124)">
<path d="M80 80V189H89V179.917H98V170.833H107V161.75H116V152.667H161V143.583H152V134.5H143V125.417H134V116.333H125V107.25H116V98.1667H107V89.0833H98V80H80Z" fill="white"/>
</g>
<defs>
<filter id="filter0_d_87_124" x="66" y="66" width="109" height="137" filterUnits="userSpaceOnUse" color-interpolation-filters="sRGB">
<feFlood flood-opacity="0" result="BackgroundImageFix"/>
<feColorMatrix in="SourceAlpha" type="matrix" values="0 0 0 0 0 0 0 0 0 0 0 0 0 0 0 0 0 0 127 0" result="hardAlpha"/>
<feOffset/>
<feGaussianBlur stdDeviation="7"/>
<feComposite in2="hardAlpha" operator="out"/>
<feColorMatrix type="matrix" values="0 0 0 0 1 0 0 0 0 1 0 0 0 0 1 0 0 0 0.8 0"/>
<feBlend mode="normal" in2="BackgroundImageFix" result="effect1_dropShadow_87_124"/>
<feBlend mode="normal" in="SourceGraphic" in2="effect1_dropShadow_87_124" result="shape"/>
</filter>
<filter id="filter1_f_87_124" x="0" y="0" width="241" height="269" filterUnits="userSpaceOnUse" color-interpolation-filters="sRGB">
<feFlood flood-opacity="0" result="BackgroundImageFix"/>
<feBlend mode="normal" in="SourceGraphic" in2="BackgroundImageFix" result="shape"/>
<feGaussianBlur stdDeviation="40" result="effect1_foregroundBlur_87_124"/>
</filter>
</defs>
</svg>
